<?xml version="1.0" standalone="no"?>
<svg xmlns:xlink="http://www.w3.org/1999/xlink" id="wave" style="transform:rotate(0deg); transition: 0.3s" viewBox="0 0 1440 490" version="1.1" xmlns="http://www.w3.org/2000/svg"><defs><linearGradient id="sw-gradient-0" x1="0" x2="0" y1="1" y2="0"><stop stop-color="rgba(243, 106, 62, 1)" offset="0%"/><stop stop-color="rgba(255, 179, 11, 1)" offset="100%"/></linearGradient></defs><path style="transform:translate(0, 0px); opacity:1" fill="url(#sw-gradient-0)" d="M0,441L48,432.8C96,425,192,408,288,351.2C384,294,480,196,576,179.7C672,163,768,229,864,245C960,261,1056,229,1152,187.8C1248,147,1344,98,1440,65.3C1536,33,1632,16,1728,81.7C1824,147,1920,294,2016,326.7C2112,359,2208,278,2304,261.3C2400,245,2496,294,2592,261.3C2688,229,2784,114,2880,122.5C2976,131,3072,261,3168,294C3264,327,3360,261,3456,196C3552,131,3648,65,3744,73.5C3840,82,3936,163,4032,163.3C4128,163,4224,82,4320,114.3C4416,147,4512,294,4608,367.5C4704,441,4800,441,4896,424.7C4992,408,5088,376,5184,318.5C5280,261,5376,180,5472,179.7C5568,180,5664,261,5760,310.3C5856,359,5952,376,6048,343C6144,310,6240,229,6336,228.7C6432,229,6528,310,6624,326.7C6720,343,6816,294,6864,269.5L6912,245L6912,490L6864,490C6816,490,6720,490,6624,490C6528,490,6432,490,6336,490C6240,490,6144,490,6048,490C5952,490,5856,490,5760,490C5664,490,5568,490,5472,490C5376,490,5280,490,5184,490C5088,490,4992,490,4896,490C4800,490,4704,490,4608,490C4512,490,4416,490,4320,490C4224,490,4128,490,4032,490C3936,490,3840,490,3744,490C3648,490,3552,490,3456,490C3360,490,3264,490,3168,490C3072,490,2976,490,2880,490C2784,490,2688,490,2592,490C2496,490,2400,490,2304,490C2208,490,2112,490,2016,490C1920,490,1824,490,1728,490C1632,490,1536,490,1440,490C1344,490,1248,490,1152,490C1056,490,960,490,864,490C768,490,672,490,576,490C480,490,384,490,288,490C192,490,96,490,48,490L0,490Z"/></svg>